<svg xmlns="http://www.w3.org/2000/svg" viewBox="0 0 241.71 67.49"><defs><style>.cls-1{fill:#fff;}</style></defs><g id="Capa_2" data-name="Capa 2"><g id="Capa_1-2" data-name="Capa 1"><path class="cls-1" d="M82.39,39c-1.11-.76-1.41-3.16-5.82.42C64.8,49,53.47,52.9,44.76,54c-6.28.78-16.1,0-20.81-8.25,0,0,29.66-7,40.84-9.82a5.32,5.32,0,0,0,4.38-4.39C69.89,27.75,70.81-3,34.89.24,4.13,3,0,28.66,0,35.92.16,68.2,29.23,67.44,33.57,67.48c13.64.13,31.19-7.06,39.86-13.89C83.9,45.34,83.66,39.9,82.39,39ZM35,13.54C50.65,9.62,54,25.67,54.19,27.29L21.6,35.14C20.81,31.6,22.17,16.74,35,13.54Z"/><path class="cls-1" d="M218.15.19h-6.73q-26.92,0-30.76,26.92s-2,17.84-2,21c-2.41,1.15-7.07,0-6.54-6.65a14,14,0,0,1,.13-1.52l.35-2.49h0l1.52-10.76a42.94,42.94,0,0,0,.46-6.09q0-20.4-23.25-20.4-9.93,0-14,5.3l-.6-5.3H118.22l-6.08,43.05q-3.77,3.32-13.71,3.32c-3.88,0-5.83-1.7-5.83-5.11a10.29,10.29,0,0,1,.13-1.52L98.37.19H78.49L72.86,39.93A43.05,43.05,0,0,0,72.4,46q0,20.42,23.25,20.41,9.93,0,14-5.3l.59,5.3h18.55l3.62-25.66,2.46-17.4q3.78-3.32,13.71-3.31,5.83,0,5.83,5.1a9.09,9.09,0,0,1-.13,1.52l-1.09,7.69h0l-.78,5.56c-2,13.66,7.28,26.5,22.78,26.5,4.67,0,8.34-.9,11.05-2.65,3.85,2.46,9.07,3.71,15.72,3.71h6.73q26.93,0,30.69-26.92l1.89-13.46a46.44,46.44,0,0,0,.47-6.33Q241.71.19,218.15.19Zm2.9,26.92-1.89,13.46q-.94,6.72-7.67,6.73h-6.73q-5.92,0-5.92-5.18a9.35,9.35,0,0,1,.13-1.55l1.88-13.46q.89-6.06,7.61-6.06h6.73q5.92,0,5.92,4.71Q221.11,26.44,221.05,27.11Z"/></g></g></svg>